<svg width="1024" height="1024" xmlns="http://www.w3.org/2000/svg" version="1.1" enable-background="new 0 0 1024 1024" xml:space="preserve">
 <g>
  <title>Layer 1</title>
  <path fill="#0b3954" stroke="null" d="m-1.5,0l1027,0l0,1024l-1027,0l0,-1024z" id="svg_4"/>
  <path fill="#D3E1F0" d="m698.28857,789.77572c-34.50476,58.42683 -68.57722,116.22555 -102.84229,174.35109c-26.1891,-42.09065 -51.83658,-83.10455 -77.25627,-124.25912c-11.26457,-18.23756 -24.06311,-35.87749 -32.66813,-55.33528c-18.22327,-41.20637 -15.38929,-82.40422 7.31622,-121.52841c54.22778,-93.44097 108.76459,-186.70273 163.19082,-280.02861c14.82938,-25.42839 29.71955,-50.82144 44.55273,-76.24761c1.86736,-3.20067 3.55572,-6.50558 5.70506,-10.45715c-27.0589,0 -53.30247,-1.73808 -79.18648,0.56536c-19.71362,1.75424 -34.76696,14.43908 -45.09409,31.80071c-48.51581,81.56318 -97.04031,163.12107 -145.62523,244.6429c-10.57757,17.7485 -21.416,35.34146 -33.07523,54.55663c-115.8212,-188.18902 -230.81274,-375.02995 -346.49287,-562.98973c2.93379,-0.14867 5.12371,-0.35829 7.31355,-0.35631c69.33222,0.06132 138.68977,1.30294 207.9872,-0.21002c42.04179,-0.91799 72.66873,14.7287 94.20059,50.46539c10.87633,18.05161 23.21943,35.21937 35.99384,54.43288c11.57863,-17.16362 22.2817,-33.38538 33.36579,-49.34264c8.26579,-11.89982 16.13881,-24.25131 25.7643,-34.98729c15.61754,-17.41902 36.20377,-25.09195 59.46855,-24.97394c66.21013,0.33588 132.42028,0.77226 198.62801,1.41513c23.89336,0.23202 47.7772,1.33958 71.67042,1.73495c37.28081,0.61692 67.20159,33.1999 62.77568,70.16719c-1.35507,11.3172 -4.96171,23.18091 -10.59731,33.04616c-76.62745,134.13738 -153.73974,267.99794 -230.85967,401.85354c-22.81873,39.60612 -45.65298,79.21277 -69.18475,118.39597c-19.41093,32.32141 -18.10277,63.28264 2.37814,94.49807c14.43007,21.99324 27.87834,44.63005 41.8271,66.94068c1.77849,2.84461 3.9333,5.45407 6.65615,9.19146c21.03364,-36.01955 41.39617,-70.97008 61.83564,-105.8753c40.07309,-68.43389 80.31417,-136.77003 120.25434,-205.28137c44.30211,-75.99337 88.41425,-152.09779 132.4397,-228.25171c8.05807,-13.93846 2.74354,-22.54635 -13.19915,-22.53111c-17.55488,0.01683 -35.10975,0.00381 -55.25848,0.00381c11.35274,-18.74922 21.43156,-35.5284 31.73154,-52.17074c0.89927,-1.45303 3.29099,-2.90604 4.92423,-2.83621c14.11914,0.60371 28.62996,-0.26599 42.25038,2.77179c31.87272,7.10869 52.73001,40.19973 47.08805,74.304c-1.86495,11.27436 -6.40006,22.69217 -12.13458,32.65061c-57.03811,99.05139 -114.53594,197.83837 -172.00675,296.64015c-27.68853,47.6011 -55.59617,95.07472 -83.83675,143.23408m67.12415,-597.68203c2.71764,-4.82852 5.41585,-9.66808 8.15646,-14.48346c7.53206,-13.23503 15.63279,-26.18376 22.45031,-39.77652c5.44136,-10.84883 -0.36947,-19.20373 -12.26181,-19.46096c-17.31364,-0.37441 -34.62412,-0.93177 -51.9394,-1.19141c-66.52921,-0.99775 -133.05802,-2.09832 -199.59109,-2.71452c-16.25384,-0.15059 -30.66225,5.07056 -40.268,19.57015c-19.51517,29.45742 -39.10469,58.86584 -58.72574,88.25288c-10.07595,15.09097 -20.28592,30.09237 -31.09743,46.11544c-29.38468,-44.06193 -57.98587,-86.52562 -86.04444,-129.34493c-6.35943,-9.70489 -14.18369,-15.97388 -25.54652,-17.48409c-7.53462,-1.00147 -15.14728,-1.90773 -22.73135,-1.96182c-34.66684,-0.24751 -69.33602,-0.19711 -104.00432,-0.18003c-2.15741,0.00108 -4.31451,0.63253 -7.26372,1.09487c82.07794,133.71384 163.5686,266.47096 245.5635,400.04951c1.87264,-2.70075 3.10938,-4.28467 4.13658,-5.99447c42.09086,-70.06861 84.77259,-139.79206 126.01489,-210.3569c25.8562,-44.23945 64.13594,-64.0992 114.0526,-64.42015c27.73358,-0.17833 55.47074,-0.23672 83.20218,0.05332c5.89323,0.06171 9.29824,-1.54469 12.18258,-6.90937c7.21427,-13.41774 15.18219,-26.43032 23.71472,-40.85754z" id="svg_2" stroke="null"/>
 </g>

</svg>